<?xml version="1.0" encoding="UTF-8"?>
<svg xmlns="http://www.w3.org/2000/svg" viewBox="0 0 380 300" width="380" height="300" data-theme="light"><defs><marker id="ar153" viewBox="0 0 10 10" refX="8.5" refY="5" markerWidth="7" markerHeight="7" orient="auto-start-reverse"><path d="M1,1 L9,5 L1,9" fill="none" stroke="oklch(0.56 0.27 258)" stroke-width="1.4" stroke-linecap="round" stroke-linejoin="round"/></marker></defs><g/><g><path d="M78,76 h16 a16,16 0 0 1 0,32 h-16 Z" fill="oklch(0.56 0.27 258 / 0.13)" stroke="oklch(0.56 0.27 258)" stroke-width="1.6" stroke-linecap="round" stroke-linejoin="round"/><path d="M76,184 q18,2 30,16 q-12,14 -30,16 q8,-16 0,-32 Z" fill="oklch(0.56 0.27 258 / 0.13)" stroke="oklch(0.56 0.27 258)" stroke-width="1.6" stroke-linecap="round" stroke-linejoin="round"/><path d="M232,128 h16 a16,16 0 0 1 0,32 h-16 Z" fill="oklch(0.56 0.27 258 / 0.13)" stroke="oklch(0.56 0.27 258)" stroke-width="1.6" stroke-linecap="round" stroke-linejoin="round"/><path d="M36,84 H78" fill="none" stroke="oklch(0.70 0.17 258)" stroke-width="1.2" stroke-linecap="round" stroke-linejoin="round"/><circle cx="36" cy="84" r="3" stroke="oklch(0.56 0.27 258)" stroke-width="1.4" fill="#ffffff"/><path d="M36,100 H78" fill="none" stroke="oklch(0.70 0.17 258)" stroke-width="1.2" stroke-linecap="round" stroke-linejoin="round"/><circle cx="36" cy="100" r="3" stroke="oklch(0.56 0.27 258)" stroke-width="1.4" fill="#ffffff"/><path d="M36,192 H78" fill="none" stroke="oklch(0.70 0.17 258)" stroke-width="1.2" stroke-linecap="round" stroke-linejoin="round"/><circle cx="36" cy="192" r="3" stroke="oklch(0.56 0.27 258)" stroke-width="1.4" fill="#ffffff"/><path d="M36,208 H78" fill="none" stroke="oklch(0.70 0.17 258)" stroke-width="1.2" stroke-linecap="round" stroke-linejoin="round"/><circle cx="36" cy="208" r="3" stroke="oklch(0.56 0.27 258)" stroke-width="1.4" fill="#ffffff"/><path d="M112,92 H202 V136 H232" fill="none" stroke="oklch(0.56 0.27 258)" stroke-width="1.3" stroke-linecap="round" stroke-linejoin="round"/><path d="M108,200 H214 V152 H232" fill="none" stroke="oklch(0.56 0.27 258)" stroke-width="1.3" stroke-linecap="round" stroke-linejoin="round"/><path d="M266,144 H334" fill="none" stroke="oklch(0.56 0.27 258)" stroke-width="1.3" stroke-linecap="round" stroke-linejoin="round"/><circle cx="270" cy="144" r="4" stroke="oklch(0.56 0.27 258)" stroke-width="1.4" fill="#ffffff"/><circle cx="334" cy="144" r="4" stroke="oklch(0.56 0.27 258)" stroke-width="1.4" fill="oklch(0.56 0.27 258 / 0.13)"/><text x="85" y="96" fill="oklch(0.56 0.27 258)" font-family="'Departure Mono', ui-monospace, monospace" font-size="11" text-anchor="middle" letter-spacing="0.04em">&amp;</text><text x="85" y="204" fill="oklch(0.56 0.27 258)" font-family="'Departure Mono', ui-monospace, monospace" font-size="11" text-anchor="middle" letter-spacing="0.04em">≥1</text><text x="239" y="148" fill="oklch(0.56 0.27 258)" font-family="'Departure Mono', ui-monospace, monospace" font-size="11" text-anchor="middle" letter-spacing="0.04em">&amp;</text><text x="362" y="34" fill="oklch(0.66 0.16 258)" font-family="'Departure Mono', ui-monospace, monospace" font-size="10.5" text-anchor="end" letter-spacing="0.04em">Q=(A·B)+(C+D)</text></g><text x="15" y="96" fill="oklch(0.66 0.16 258)" font-family="'Departure Mono', ui-monospace, monospace" font-size="11.5" letter-spacing="0.18em" text-anchor="start" transform="rotate(-90 15 96)">FIG_009</text><text x="366" y="286" text-anchor="end" fill="oklch(0.66 0.16 258)" font-family="'Departure Mono', ui-monospace, monospace" font-size="11" letter-spacing="0.14em">0x7271</text></svg>