<?xml version="1.0" encoding="UTF-8"?>
<svg xmlns="http://www.w3.org/2000/svg" viewBox="0 0 380 300" width="380" height="300" data-theme="light"><defs><marker id="ar147" viewBox="0 0 10 10" refX="8.5" refY="5" markerWidth="7" markerHeight="7" orient="auto-start-reverse"><path d="M1,1 L9,5 L1,9" fill="none" stroke="oklch(0.56 0.27 258)" stroke-width="1.4" stroke-linecap="round" stroke-linejoin="round"/></marker></defs><g/><g><g transform="translate(190, 180)"><polyline points="0.00,-75.00 -129.90,0.00" fill="none" stroke="oklch(0.70 0.17 258)" stroke-width="1" stroke-linecap="round" stroke-linejoin="round" stroke-dasharray="3 4"/><polyline points="0.00,-75.00 129.90,0.00" fill="none" stroke="oklch(0.70 0.17 258)" stroke-width="1" stroke-linecap="round" stroke-linejoin="round" stroke-dasharray="3 4"/><polyline points="14.43,-66.67 -115.47,8.33" fill="none" stroke="oklch(0.70 0.17 258)" stroke-width="1" stroke-linecap="round" stroke-linejoin="round" stroke-dasharray="3 4"/><polyline points="-14.43,-66.67 115.47,8.33" fill="none" stroke="oklch(0.70 0.17 258)" stroke-width="1" stroke-linecap="round" stroke-linejoin="round" stroke-dasharray="3 4"/><polyline points="28.87,-58.33 -101.04,16.67" fill="none" stroke="oklch(0.70 0.17 258)" stroke-width="1" stroke-linecap="round" stroke-linejoin="round" stroke-dasharray="3 4"/><polyline points="-28.87,-58.33 101.04,16.67" fill="none" stroke="oklch(0.70 0.17 258)" stroke-width="1" stroke-linecap="round" stroke-linejoin="round" stroke-dasharray="3 4"/><polyline points="43.30,-50.00 -86.60,25.00" fill="none" stroke="oklch(0.70 0.17 258)" stroke-width="1" stroke-linecap="round" stroke-linejoin="round" stroke-dasharray="3 4"/><polyline points="-43.30,-50.00 86.60,25.00" fill="none" stroke="oklch(0.70 0.17 258)" stroke-width="1" stroke-linecap="round" stroke-linejoin="round" stroke-dasharray="3 4"/><polyline points="57.74,-41.67 -72.17,33.33" fill="none" stroke="oklch(0.70 0.17 258)" stroke-width="1" stroke-linecap="round" stroke-linejoin="round" stroke-dasharray="3 4"/><polyline points="-57.74,-41.67 72.17,33.33" fill="none" stroke="oklch(0.70 0.17 258)" stroke-width="1" stroke-linecap="round" stroke-linejoin="round" stroke-dasharray="3 4"/><polyline points="72.17,-33.33 -57.74,41.67" fill="none" stroke="oklch(0.70 0.17 258)" stroke-width="1" stroke-linecap="round" stroke-linejoin="round" stroke-dasharray="3 4"/><polyline points="-72.17,-33.33 57.74,41.67" fill="none" stroke="oklch(0.70 0.17 258)" stroke-width="1" stroke-linecap="round" stroke-linejoin="round" stroke-dasharray="3 4"/><polyline points="86.60,-25.00 -43.30,50.00" fill="none" stroke="oklch(0.70 0.17 258)" stroke-width="1" stroke-linecap="round" stroke-linejoin="round" stroke-dasharray="3 4"/><polyline points="-86.60,-25.00 43.30,50.00" fill="none" stroke="oklch(0.70 0.17 258)" stroke-width="1" stroke-linecap="round" stroke-linejoin="round" stroke-dasharray="3 4"/><polyline points="101.04,-16.67 -28.87,58.33" fill="none" stroke="oklch(0.70 0.17 258)" stroke-width="1" stroke-linecap="round" stroke-linejoin="round" stroke-dasharray="3 4"/><polyline points="-101.04,-16.67 28.87,58.33" fill="none" stroke="oklch(0.70 0.17 258)" stroke-width="1" stroke-linecap="round" stroke-linejoin="round" stroke-dasharray="3 4"/><polyline points="115.47,-8.33 -14.43,66.67" fill="none" stroke="oklch(0.70 0.17 258)" stroke-width="1" stroke-linecap="round" stroke-linejoin="round" stroke-dasharray="3 4"/><polyline points="-115.47,-8.33 14.43,66.67" fill="none" stroke="oklch(0.70 0.17 258)" stroke-width="1" stroke-linecap="round" stroke-linejoin="round" stroke-dasharray="3 4"/><polyline points="129.90,0.00 0.00,75.00" fill="none" stroke="oklch(0.70 0.17 258)" stroke-width="1" stroke-linecap="round" stroke-linejoin="round" stroke-dasharray="3 4"/><polyline points="-129.90,0.00 0.00,75.00" fill="none" stroke="oklch(0.70 0.17 258)" stroke-width="1" stroke-linecap="round" stroke-linejoin="round" stroke-dasharray="3 4"/><polyline points="0.00,-119.11 14.43,-114.46 28.87,-110.83 43.30,-106.95 57.74,-101.11 72.17,-92.18 86.60,-80.45 101.04,-67.37 115.47,-54.61 129.90,-43.11" fill="none" stroke="oklch(0.56 0.27 258)" stroke-width="1.3" stroke-linecap="round" stroke-linejoin="round"/><polyline points="0.00,-119.11 -14.43,-114.52 -28.87,-111.04 -43.30,-107.37 -57.74,-101.75 -72.17,-92.96 -86.60,-81.22 -101.04,-68.00 -115.47,-55.03 -129.90,-43.34" fill="none" stroke="oklch(0.70 0.17 258)" stroke-width="1" stroke-linecap="round" stroke-linejoin="round"/><polyline points="-14.43,-114.52 0.00,-113.24 14.43,-113.91 28.87,-114.10 43.30,-110.53 57.74,-101.06 72.17,-86.23 86.60,-68.82 101.04,-52.00 115.47,-37.61" fill="none" stroke="oklch(0.56 0.27 258)" stroke-width="1.3" stroke-linecap="round" stroke-linejoin="round"/><polyline points="14.43,-114.46 0.00,-113.24 -14.43,-114.11 -28.87,-114.63 -43.30,-111.44 -57.74,-102.25 -72.17,-87.44 -86.60,-69.83 -101.04,-52.70 -115.47,-38.01" fill="none" stroke="oklch(0.70 0.17 258)" stroke-width="1" stroke-linecap="round" stroke-linejoin="round"/><polyline points="-28.87,-111.04 -14.43,-114.11 0.00,-120.34 14.43,-125.80 28.87,-125.16 43.30,-114.99 57.74,-96.14 72.17,-73.13 86.60,-51.08 101.04,-32.95" fill="none" stroke="oklch(0.56 0.27 258)" stroke-width="1.3" stroke-linecap="round" stroke-linejoin="round"/><polyline points="28.87,-110.83 14.43,-113.91 0.00,-120.34 -14.43,-126.22 -28.87,-126.14 -43.30,-116.43 -57.74,-97.71 -72.17,-74.50 -86.60,-52.04 -101.04,-33.51" fill="none" stroke="oklch(0.70 0.17 258)" stroke-width="1" stroke-linecap="round" stroke-linejoin="round"/><polyline points="-43.30,-107.37 -28.87,-114.63 -14.43,-126.22 0.00,-136.74 14.43,-138.93 28.87,-128.09 43.30,-105.37 57.74,-76.97 72.17,-49.87 86.60,-28.15" fill="none" stroke="oklch(0.56 0.27 258)" stroke-width="1.3" stroke-linecap="round" stroke-linejoin="round"/><polyline points="43.30,-106.95 28.87,-114.10 14.43,-125.80 0.00,-136.74 -14.43,-139.60 -28.87,-129.39 -43.30,-106.98 -57.74,-78.46 -72.17,-50.97 -86.60,-28.80" fill="none" stroke="oklch(0.70 0.17 258)" stroke-width="1" stroke-linecap="round" stroke-linejoin="round"/><polyline points="-57.74,-101.75 -43.30,-111.44 -28.87,-126.14 -14.43,-139.60 0.00,-143.44 14.43,-132.20 28.87,-107.24 43.30,-75.70 57.74,-45.68 72.17,-21.86" fill="none" stroke="oklch(0.56 0.27 258)" stroke-width="1.3" stroke-linecap="round" stroke-linejoin="round"/><polyline points="57.74,-101.11 43.30,-110.53 28.87,-125.16 14.43,-138.93 0.00,-143.44 -14.43,-132.95 -28.87,-108.47 -43.30,-76.99 -57.74,-46.69 -72.17,-22.49" fill="none" stroke="oklch(0.70 0.17 258)" stroke-width="1" stroke-linecap="round" stroke-linejoin="round"/><polyline points="-72.17,-92.96 -57.74,-102.25 -43.30,-116.43 -28.87,-129.39 -14.43,-132.95 0.00,-121.78 14.43,-97.20 28.87,-66.19 43.30,-36.65 57.74,-13.19" fill="none" stroke="oklch(0.56 0.27 258)" stroke-width="1.3" stroke-linecap="round" stroke-linejoin="round"/><polyline points="72.17,-92.18 57.74,-101.06 43.30,-114.99 28.87,-128.09 14.43,-132.20 0.00,-121.78 -14.43,-97.80 -28.87,-67.02 -43.30,-37.39 -57.74,-13.67" fill="none" stroke="oklch(0.70 0.17 258)" stroke-width="1" stroke-linecap="round" stroke-linejoin="round"/><polyline points="-86.60,-81.22 -72.17,-87.44 -57.74,-97.71 -43.30,-106.98 -28.87,-108.47 -14.43,-97.80 0.00,-76.03 14.43,-48.96 28.87,-23.11 43.30,-2.27" fill="none" stroke="oklch(0.56 0.27 258)" stroke-width="1.3" stroke-linecap="round" stroke-linejoin="round"/><polyline points="86.60,-80.45 72.17,-86.23 57.74,-96.14 43.30,-105.37 28.87,-107.24 14.43,-97.20 0.00,-76.03 -14.43,-49.31 -28.87,-23.52 -43.30,-2.57" fill="none" stroke="oklch(0.70 0.17 258)" stroke-width="1" stroke-linecap="round" stroke-linejoin="round"/><polyline points="-101.04,-68.00 -86.60,-69.83 -72.17,-74.50 -57.74,-78.46 -43.30,-76.99 -28.87,-67.02 -14.43,-49.31 0.00,-27.88 14.43,-7.31 28.87,9.76" fill="none" stroke="oklch(0.56 0.27 258)" stroke-width="1.3" stroke-linecap="round" stroke-linejoin="round"/><polyline points="101.04,-67.37 86.60,-68.82 72.17,-73.13 57.74,-76.97 43.30,-75.70 28.87,-66.19 14.43,-48.96 0.00,-27.88 -14.43,-7.45 -28.87,9.62" fill="none" stroke="oklch(0.70 0.17 258)" stroke-width="1" stroke-linecap="round" stroke-linejoin="round"/><polyline points="-115.47,-55.03 -101.04,-52.70 -86.60,-52.04 -72.17,-50.97 -57.74,-46.69 -43.30,-37.39 -28.87,-23.52 -14.43,-7.45 0.00,8.11 14.43,21.60" fill="none" stroke="oklch(0.56 0.27 258)" stroke-width="1.3" stroke-linecap="round" stroke-linejoin="round"/><polyline points="115.47,-54.61 101.04,-52.00 86.60,-51.08 72.17,-49.87 57.74,-45.68 43.30,-36.65 28.87,-23.11 14.43,-7.31 0.00,8.11 -14.43,21.56" fill="none" stroke="oklch(0.70 0.17 258)" stroke-width="1" stroke-linecap="round" stroke-linejoin="round"/><polyline points="-129.90,-43.34 -115.47,-38.01 -101.04,-33.51 -86.60,-28.80 -72.17,-22.49 -57.74,-13.67 -43.30,-2.57 -28.87,9.62 -14.43,21.56 0.00,32.47" fill="none" stroke="oklch(0.56 0.27 258)" stroke-width="1.3" stroke-linecap="round" stroke-linejoin="round"/><polyline points="129.90,-43.11 115.47,-37.61 101.04,-32.95 86.60,-28.15 72.17,-21.86 57.74,-13.19 43.30,-2.27 28.87,9.76 14.43,21.60 0.00,32.47" fill="none" stroke="oklch(0.70 0.17 258)" stroke-width="1" stroke-linecap="round" stroke-linejoin="round"/><polyline points="-5.20,-113.65 -3.76,-123.93 -2.78,-135.34 -2.11,-141.62 -1.66,-143.79 -1.35,-143.89 -1.14,-143.22 -1.00,-142.40" fill="none" stroke="oklch(0.56 0.27 258)" stroke-width="2.2" stroke-linecap="round" stroke-linejoin="round"/><circle cx="-5.196152422706638" cy="-113.64767960479648" r="2.6" stroke="oklch(0.56 0.27 258)" stroke-width="1.4" fill="oklch(0.56 0.27 258)"/><circle cx="-3.755786853533235" cy="-123.92524175259922" r="2.6" stroke="oklch(0.56 0.27 258)" stroke-width="1.4" fill="oklch(0.56 0.27 258)"/><circle cx="-2.7763382664953253" cy="-135.33566168223058" r="2.6" stroke="oklch(0.56 0.27 258)" stroke-width="1.4" fill="oklch(0.56 0.27 258)"/><circle cx="-2.110313227309549" cy="-141.6248843615413" r="2.6" stroke="oklch(0.56 0.27 258)" stroke-width="1.4" fill="oklch(0.56 0.27 258)"/><circle cx="-1.6574162006632207" cy="-143.79421385564328" r="2.6" stroke="oklch(0.56 0.27 258)" stroke-width="1.4" fill="oklch(0.56 0.27 258)"/><circle cx="-1.3494462225437138" cy="-143.8897491748489" r="2.6" stroke="oklch(0.56 0.27 258)" stroke-width="1.4" fill="oklch(0.56 0.27 258)"/><circle cx="-1.140026637422456" cy="-143.21821672240893" r="2.6" stroke="oklch(0.56 0.27 258)" stroke-width="1.4" fill="oklch(0.56 0.27 258)"/><circle cx="-0.9976213195400004" cy="-142.39865544779866" r="2.6" stroke="oklch(0.56 0.27 258)" stroke-width="1.4" fill="oklch(0.56 0.27 258)"/></g><text x="18" y="40" fill="oklch(0.66 0.16 258)" font-family="'Departure Mono', ui-monospace, monospace" font-size="11" text-anchor="start" letter-spacing="0.04em">∇ STEP 0.03</text><text x="362" y="250" fill="oklch(0.66 0.16 258)" font-family="'Departure Mono', ui-monospace, monospace" font-size="11" text-anchor="end" letter-spacing="0.04em">min ƒ</text></g><text x="15" y="96" fill="oklch(0.66 0.16 258)" font-family="'Departure Mono', ui-monospace, monospace" font-size="11.5" letter-spacing="0.18em" text-anchor="start" transform="rotate(-90 15 96)">FIG_003</text><text x="366" y="286" text-anchor="end" fill="oklch(0.66 0.16 258)" font-family="'Departure Mono', ui-monospace, monospace" font-size="11" letter-spacing="0.14em">0x65FC</text></svg>